<svg xmlns="http://www.w3.org/2000/svg" width="520" height="60" viewBox="0 0 520 60"><path fill="#34343A" d="M.234 58.516v-56.875h19.844c6.953 0 12.682 2.221 17.188 6.66 4.505 4.44 6.758 10.137 6.758 17.09v9.414c0 6.98-2.253 12.676-6.758 17.09-4.506 4.414-10.234 6.621-17.188 6.621h-19.844zm11.407-48.086v39.336h8.438c3.75 0 6.771-1.398 9.063-4.199 2.291-2.799 3.438-6.387 3.438-10.762v-9.492c0-4.349-1.146-7.916-3.438-10.703-2.292-2.786-5.313-4.18-9.063-4.18h-8.438zm68.882 23.086h-21.093v16.25h25.078v8.75h-36.485v-56.875h36.407v8.789h-25v14.297h21.094v8.789zm32.321 9.57l.703 3.125h.234l.664-3.008 12.383-41.563h12.031l-19.336 56.875h-11.719l-19.296-56.874h12.031l12.305 41.445zm62.515-9.57h-21.094v16.25h25.078v8.75h-36.484v-56.875h36.406v8.789h-25v14.297h21.094v8.789zm19.391 16.25h25.469v8.75h-36.875v-56.875h11.406v48.125zm76.93-15.391c0 7.006-2.201 12.781-6.602 17.324-4.401 4.545-10.131 6.816-17.188 6.816-7.031 0-12.734-2.277-17.109-6.836-4.375-4.557-6.563-10.324-6.563-17.305v-10.233c0-6.953 2.181-12.715 6.543-17.285 4.362-4.571 10.046-6.856 17.052-6.856 7.057 0 12.799 2.285 17.227 6.855 4.427 4.57 6.641 10.332 6.641 17.285v10.235zm-11.367-10.312c0-4.427-1.107-8.06-3.32-10.898-2.214-2.838-5.273-4.258-9.18-4.258-3.854 0-6.855 1.42-9.004 4.258-2.148 2.839-3.223 6.472-3.223 10.898v10.313c0 4.506 1.08 8.178 3.242 11.016 2.161 2.84 5.182 4.258 9.063 4.258 3.906 0 6.953-1.418 9.141-4.258 2.188-2.838 3.281-6.51 3.281-11.016v-10.313zm26.773 13.828v20.625h-11.406v-56.875h21.758c6.535 0 11.68 1.667 15.43 5 3.75 3.334 5.625 7.722 5.625 13.164 0 5.443-1.875 9.818-5.625 13.125-3.75 3.309-8.895 4.961-15.43 4.961h-10.352zm0-8.789h10.352c3.176 0 5.586-.865 7.227-2.598 1.641-1.731 2.461-3.938 2.461-6.621 0-2.734-.814-4.993-2.441-6.777-1.629-1.783-4.043-2.676-7.246-2.676h-10.352v18.672zm64.821 14.453h.234l14.609-41.914h14.883v56.875h-11.406v-38.828l-.234-.039-14.063 38.867h-7.734l-14.063-38.946-.234.039v38.906h-11.406v-56.874h14.961l14.453 41.914zm66.226-10.039h-21.093v16.25h25.078v8.75h-36.484v-56.875h36.406v8.789h-25v14.297h21.093v8.789zm53.961 25h-11.406l-22.93-38.359-.234.039v38.32h-11.406v-56.875h11.406l22.93 38.32.234-.039v-38.281h11.406v56.875zm47.672-48.086h-16.25v48.086h-11.406v-48.086h-16.016v-8.789h43.672v8.789z"/></svg>