<svg xmlns="http://www.w3.org/2000/svg" width="160" height="40" viewBox="0 0 160 40"><path fill="#34343A" d="M148 0h-148l12 20-12 20h148l12-20z"/><path fill="#fff" d="M43.86 21.049l-9.523-9.523c-.187-.187-.487-.187-.674 0l-9.523 9.523c-.136.136-.177.343-.104.52.073.179.247.294.439.294h2.298v6.276c0 .264.213.476.476.476h13.501c.264 0 .477-.212.477-.476v-6.276h2.297c.192 0 .366-.115.439-.294.074-.177.033-.384-.103-.52zm18.999-.828c.146.139.22.322.22.549v4.961c0 .227-.073.412-.22.561-1.24 1.146-2.873 1.719-4.9 1.719-1.413 0-2.713-.359-3.899-1.08-1.187-.719-2.13-1.693-2.83-2.92s-1.05-2.566-1.05-4.02c0-1.439.347-2.773 1.04-4 .692-1.227 1.633-2.199 2.819-2.92s2.493-1.08 3.92-1.08c.961 0 1.834.141 2.62.42.787.279 1.547.727 2.28 1.34.146.107.22.26.22.461 0 .105-.026.203-.08.289-.053.088-.126.15-.22.189-.026.094-.087.17-.18.23-.094.061-.193.09-.3.09-.188 0-.354-.066-.5-.199-.521-.467-1.087-.807-1.7-1.02-.613-.215-1.327-.32-2.141-.32-1.119 0-2.159.297-3.119.889-.96.594-1.724 1.391-2.29 2.391-.567 1-.851 2.08-.851 3.24 0 1.188.28 2.279.84 3.279.561 1 1.32 1.795 2.28 2.381s2.007.879 3.14.879c1.294 0 2.493-.379 3.601-1.139v-4h-3.12c-.227 0-.413-.066-.56-.201-.147-.133-.221-.299-.221-.5 0-.199.073-.363.221-.49.146-.125.333-.189.56-.189h3.86c.227-.001.413.069.56.21zm10.62-2.731c.84.48 1.504 1.146 1.99 2s.73 1.807.73 2.859c0 1.055-.24 2.004-.721 2.85-.48.848-1.143 1.512-1.99 1.99-.846.48-1.797.721-2.849.721-1.054 0-2.004-.24-2.851-.721-.847-.479-1.51-1.143-1.989-1.99-.48-.846-.721-1.795-.721-2.85 0-1.053.24-2.006.721-2.859.479-.854 1.143-1.52 1.989-2s1.797-.721 2.851-.721c1.052.001 2 .241 2.84.721zm-4.91 1.221c-.62.359-1.106.855-1.46 1.488-.354.635-.53 1.352-.53 2.15 0 .787.177 1.498.53 2.131s.84 1.129 1.46 1.49c.62.359 1.31.539 2.07.539.773 0 1.466-.18 2.08-.539.613-.361 1.094-.857 1.439-1.49.348-.633.521-1.344.521-2.131 0-.799-.174-1.516-.521-2.15-.346-.633-.826-1.129-1.439-1.488-.613-.361-1.307-.541-2.08-.541-.761 0-1.45.18-2.07.541zm23.179-6.301c.154-.146.338-.221.551-.221.227 0 .412.074.561.221.146.146.219.334.219.561v14.059c0 .215-.072.398-.219.551-.148.154-.334.23-.561.23-.213 0-.396-.076-.551-.23-.152-.152-.229-.336-.229-.551v-6.42h-9.762v6.42c0 .215-.072.398-.219.551-.146.154-.334.23-.561.23-.213 0-.396-.076-.549-.23-.154-.152-.23-.336-.23-.551v-14.059c0-.227.076-.414.23-.561.152-.146.336-.221.549-.221.227 0 .414.074.561.221s.219.334.219.561v6.24h9.762v-6.24c.001-.227.077-.414.229-.561zm11.731 5.08c.84.48 1.504 1.146 1.99 2s.73 1.807.73 2.859c0 1.055-.24 2.004-.721 2.85-.48.848-1.143 1.512-1.99 1.99-.846.48-1.797.721-2.85.721s-2.004-.24-2.85-.721c-.848-.479-1.51-1.143-1.99-1.99-.48-.846-.721-1.795-.721-2.85 0-1.053.24-2.006.721-2.859s1.143-1.52 1.99-2c.846-.48 1.797-.721 2.85-.721s2.001.241 2.841.721zm-4.911 1.221c-.619.359-1.105.855-1.459 1.488-.354.635-.531 1.352-.531 2.15 0 .787.178 1.498.531 2.131s.84 1.129 1.459 1.49c.621.359 1.311.539 2.07.539.773 0 1.467-.18 2.08-.539.613-.361 1.094-.857 1.439-1.49.348-.633.521-1.344.521-2.131 0-.799-.174-1.516-.521-2.15-.346-.633-.826-1.129-1.439-1.488-.613-.361-1.307-.541-2.08-.541-.759 0-1.449.18-2.07.541zm23.241-1.4c.607.373 1.08.902 1.42 1.59s.51 1.482.51 2.391v5.76c0 .227-.07.41-.209.549-.141.141-.324.211-.551.211s-.412-.07-.561-.211c-.146-.139-.219-.322-.219-.549v-5.76c0-.947-.244-1.697-.73-2.25-.486-.555-1.123-.83-1.91-.83-.84 0-1.52.279-2.039.84-.521.559-.773 1.293-.76 2.199v5.801c0 .227-.07.41-.211.549-.141.141-.324.211-.551.211s-.412-.07-.559-.211c-.146-.139-.221-.322-.221-.549v-5.76c0-.947-.244-1.697-.73-2.25-.486-.555-1.123-.83-1.91-.83-.826 0-1.506.273-2.039.818-.533.547-.801 1.248-.801 2.102v5.92c0 .227-.07.41-.209.549-.141.141-.324.211-.551.211s-.412-.07-.561-.211c-.146-.139-.219-.322-.219-.549v-9.4c0-.227.072-.414.219-.561.148-.146.334-.221.561-.221s.41.074.551.221c.139.146.209.334.209.561v.439c.373-.426.816-.756 1.33-.99.514-.232 1.07-.35 1.67-.35.734 0 1.395.166 1.98.5s1.053.801 1.4 1.4c.387-.6.891-1.066 1.51-1.4s1.316-.5 2.09-.5c.788-.001 1.483.187 2.091.56zm11.791.15c.76.459 1.35 1.096 1.77 1.908.42.814.631 1.74.631 2.781 0 .213-.068.383-.201.51s-.307.189-.52.189h-8.08c.105 1.094.533 1.98 1.279 2.66.748.68 1.68 1.02 2.801 1.02.48 0 .963-.082 1.449-.25.486-.166.877-.375 1.17-.629.174-.133.354-.201.541-.201.146 0 .293.055.439.16.174.16.26.34.26.541 0 .174-.072.326-.219.459-.441.375-1 .684-1.682.932-.68.246-1.332.369-1.959.369-1.066 0-2.02-.236-2.859-.711-.842-.473-1.498-1.133-1.971-1.979-.473-.848-.711-1.805-.711-2.871 0-1.08.225-2.043.67-2.889.447-.848 1.068-1.508 1.861-1.98s1.695-.711 2.709-.711c.987.001 1.862.231 2.622.692zm-5.141 1.629c-.666.627-1.074 1.453-1.221 2.48h7.32c-.105-1.027-.48-1.854-1.119-2.48-.641-.627-1.461-.939-2.461-.939-1.013-.001-1.853.312-2.519.939z"/></svg>