<svg xmlns="http://www.w3.org/2000/svg" width="500" height="240" viewBox="0 0 500 240"><path d="M125.729 143.016c-2.716 17.619-10.152 31.78-22.308 42.485-12.158 10.703-26.888 16.056-44.19 16.056-16.356 0-29.176-5.572-38.459-16.72-9.283-11.145-12.662-25.086-10.136-41.821l3.694-24.818c2.589-17.492 9.93-31.622 22.024-42.39 12.092-10.767 26.76-16.151 44-16.151 16.482 0 29.396 5.605 38.743 16.813 9.345 11.211 12.788 25.119 10.325 41.728l-3.693 24.818zm-23.872-25.008c1.642-11.114.299-20.019-4.026-26.713-4.326-6.693-11.258-10.041-20.792-10.041-9.032 0-16.752 3.474-23.161 10.42-6.41 6.947-10.405 15.725-11.983 26.334l-3.694 25.008c-1.705 11.305-.474 20.304 3.694 26.997 4.168 6.694 11.02 10.041 20.556 10.041 9.094 0 16.893-3.473 23.397-10.42 6.503-6.946 10.609-15.819 12.314-26.618l3.695-25.008zm33.893 29.365c2.335-15.851 8.445-28.513 18.33-37.985 9.883-9.473 22.434-14.209 37.654-14.209 14.588 0 25.576 4.926 32.965 14.777s9.978 22.324 7.768 37.417l-.284 1.989c-2.463 15.978-8.62 28.671-18.472 38.08-9.852 9.41-22.419 14.114-37.701 14.114-14.588 0-25.576-4.909-32.965-14.729-7.389-9.819-9.915-22.309-7.578-37.465l.283-1.989zm27.282 1.989c-1.516 9.662-1.042 17.24 1.421 22.734s7.356 8.241 14.683 8.241c6.82 0 12.409-2.873 16.767-8.62 4.357-5.746 7.23-13.198 8.62-22.355l.284-1.989c1.326-9.409.772-16.909-1.658-22.497-2.432-5.59-7.279-8.384-14.541-8.384-6.884 0-12.504 2.922-16.861 8.763-4.357 5.842-7.168 13.214-8.431 22.118l-.284 1.989zm173.519 1.8c-2.4 15.725-7.736 28.056-16.008 36.991-8.273 8.937-18.756 13.403-31.449 13.403-5.242 0-9.805-1.059-13.688-3.173-3.885-2.115-7.058-5.194-9.521-9.236l-7.389 49.826h-27.565l21.219-141.9h24.913l-.189 12.125c3.726-4.547 7.894-8.02 12.504-10.42 4.608-2.399 9.757-3.6 15.44-3.6 12.188 0 21.154 5.006 26.902 15.014 5.746 10.011 7.451 23.004 5.115 38.98l-.284 1.99zm-27.375-1.989c1.451-9.914 1.025-17.809-1.279-23.682-2.307-5.873-6.805-8.81-13.498-8.81-4.042 0-7.673.899-10.894 2.7-3.221 1.799-5.968 4.342-8.241 7.625l-6.726 44.332c1.263 2.969 3.252 5.21 5.968 6.726 2.715 1.516 6.219 2.273 10.515 2.273 6.441 0 11.683-2.652 15.724-7.957s6.758-12.377 8.146-21.219l.285-1.988zm92.15 21.976c.441-3.157-.648-5.778-3.268-7.862-2.623-2.084-7.816-3.979-15.584-5.684-11.619-2.399-20.209-6.03-25.766-10.894-5.557-4.862-7.768-11.462-6.631-19.798 1.264-9.094 6.016-16.655 14.258-22.687 8.24-6.03 18.613-9.047 31.117-9.047 12.439 0 22.244 3.126 29.412 9.378 7.166 6.252 9.961 13.925 8.383 23.019l-.189.568h-26.713c.568-4.23-.283-7.609-2.557-10.136-2.273-2.525-5.938-3.789-10.988-3.789-4.232 0-7.848 1.105-10.846 3.315-3.002 2.211-4.723 4.926-5.164 8.146-.441 3.284.521 5.873 2.891 7.768 2.367 1.895 7.592 3.663 15.676 5.305 12.188 2.526 21.014 6.237 26.477 11.131 5.461 4.895 7.625 11.636 6.488 20.224-1.389 9.6-6.393 17.24-15.014 22.924-8.619 5.684-19.467 8.525-32.539 8.525-13.135 0-23.303-3.505-30.502-10.515s-10.01-14.84-8.43-23.492l.283-.568h25.293c-.568 5.494.678 9.473 3.742 11.936 3.061 2.463 7.34 3.694 12.834 3.694 4.863 0 8.842-1.042 11.936-3.126s4.895-4.861 5.401-8.335z" fill="#30CCE6"/><path fill="#34343A" d="M441.61 33.298c-3.159 0-5.721-2.475-5.833-5.634-.116-3.22 2.409-5.936 5.63-6.053l.211-.003c3.16 0 5.727 2.476 5.843 5.637.112 3.221-2.413 5.934-5.63 6.049l-.221.004zm.008-11.19l-.193.003c-2.944.107-5.254 2.59-5.147 5.535.103 2.889 2.445 5.151 5.333 5.151l.202-.004c2.941-.105 5.251-2.586 5.148-5.531-.106-2.89-2.453-5.154-5.343-5.154zm.033 12.31c-3.157 0-5.719-2.475-5.833-5.634-.114-3.222 2.412-5.938 5.632-6.053l.212-.003c3.156 0 5.72 2.474 5.836 5.633.057 1.562-.497 3.052-1.562 4.195-1.063 1.143-2.508 1.803-4.068 1.858l-.217.004zm.011-11.19l-.194.003c-2.943.105-5.254 2.588-5.149 5.535.104 2.889 2.446 5.151 5.333 5.151l.199-.004c1.427-.05 2.748-.654 3.72-1.699.974-1.046 1.48-2.408 1.428-3.836-.106-2.887-2.45-5.15-5.337-5.15zm-1.166 10.112c-3.159 0-5.724-2.474-5.838-5.633-.055-1.562.5-3.052 1.563-4.194 1.063-1.144 2.509-1.804 4.069-1.858l.216-.004c3.157 0 5.72 2.476 5.834 5.636.057 1.56-.497 3.049-1.561 4.191-1.063 1.142-2.508 1.802-4.069 1.858l-.214.004zm.01-11.19l-.198.004c-1.427.05-2.748.653-3.721 1.699-.972 1.045-1.479 2.408-1.429 3.836.104 2.888 2.449 5.15 5.338 5.15l.196-.004c1.428-.051 2.749-.655 3.722-1.699.972-1.044 1.479-2.406 1.426-3.833-.104-2.889-2.447-5.153-5.334-5.153zm2.223 11.109c-3.158 0-5.721-2.474-5.835-5.633-.114-3.222 2.412-5.938 5.632-6.053 3.262-.121 5.935 2.4 6.05 5.63.116 3.219-2.409 5.934-5.63 6.052l-.217.004zm.009-11.189l-.194.003c-2.943.105-5.254 2.588-5.149 5.535.104 2.888 2.447 5.15 5.335 5.15l.199-.004c2.944-.108 5.254-2.59 5.147-5.534-.102-2.888-2.446-5.15-5.338-5.15zm-1.166 10.112c-3.157 0-5.722-2.476-5.838-5.636-.055-1.56.5-3.048 1.563-4.19 1.063-1.143 2.509-1.803 4.068-1.858l.22-.004c3.153 0 5.718 2.474 5.838 5.631.114 3.222-2.414 5.937-5.636 6.053l-.215.004zm.014-11.189l-.202.004c-1.426.05-2.747.653-3.72 1.699-.973 1.045-1.48 2.406-1.43 3.832.107 2.955 2.545 5.25 5.536 5.15 2.946-.106 5.258-2.589 5.153-5.535-.109-2.888-2.453-5.15-5.337-5.15zm29.972 23.732c-3.161 0-5.727-2.474-5.841-5.633-.057-1.56.497-3.049 1.561-4.192 1.064-1.144 2.509-1.804 4.069-1.859 3.244-.115 5.934 2.399 6.052 5.629.114 3.221-2.411 5.935-5.63 6.051l-.211.004zm.003-11.188l-.196.004c-1.427.05-2.748.654-3.721 1.699s-1.479 2.407-1.427 3.833c.106 2.954 2.571 5.275 5.534 5.148 2.942-.106 5.252-2.588 5.147-5.533-.105-2.888-2.45-5.151-5.337-5.151zm.035 12.306c-3.159 0-5.724-2.475-5.84-5.635-.114-3.221 2.412-5.935 5.632-6.051l.209-.003c3.161 0 5.727 2.475 5.841 5.635.056 1.56-.498 3.049-1.561 4.191-1.063 1.143-2.508 1.803-4.069 1.859l-.212.004zm.001-11.189l-.191.003c-2.943.106-5.254 2.588-5.149 5.533.107 2.954 2.528 5.258 5.534 5.149 1.427-.051 2.749-.655 3.721-1.7.972-1.044 1.479-2.406 1.427-3.833-.106-2.889-2.452-5.152-5.342-5.152zm-1.163 10.111c-3.158 0-5.722-2.476-5.836-5.637-.056-1.559.499-3.046 1.562-4.188 1.063-1.142 2.509-1.802 4.07-1.858 3.255-.119 5.937 2.4 6.048 5.63.057 1.56-.497 3.049-1.562 4.192-1.064 1.143-2.51 1.803-4.07 1.858l-.212.003zm.008-11.187l-.195.003c-1.428.051-2.749.655-3.722 1.699s-1.479 2.404-1.428 3.83c.105 2.955 2.522 5.264 5.53 5.151 1.427-.05 2.749-.653 3.722-1.699s1.48-2.407 1.428-3.834c-.098-2.888-2.442-5.15-5.335-5.15zm2.23 11.108c-3.157 0-5.722-2.477-5.838-5.637-.116-3.217 2.41-5.931 5.632-6.049l.213-.003c3.162 0 5.725 2.476 5.835 5.637.116 3.219-2.408 5.933-5.628 6.049l-.214.003zm.007-11.19l-.195.003c-2.945.108-5.256 2.589-5.149 5.531.107 2.956 2.563 5.243 5.534 5.151 2.943-.106 5.252-2.587 5.146-5.531-.102-2.89-2.446-5.154-5.336-5.154zm-1.16 10.113c-3.159 0-5.727-2.475-5.845-5.635-.116-3.221 2.41-5.936 5.632-6.053 3.258-.093 5.934 2.401 6.052 5.63.056 1.561-.498 3.05-1.561 4.193-1.063 1.144-2.509 1.805-4.069 1.861l-.209.004zm-.002-11.192l-.193.003c-2.945.107-5.256 2.59-5.149 5.535.107 2.889 2.455 5.153 5.345 5.153l.191-.003c1.427-.051 2.748-.655 3.721-1.702.972-1.045 1.479-2.407 1.427-3.834-.107-2.888-2.454-5.152-5.342-5.152zm-29.017 37.657c-.637 0-1.22-.262-1.688-.758-1.024-1.086-1.299-3.14-1.232-4.255.02-.438.527-11.127 3.146-17.332 2.008-4.762 3.938-7.15 5.898-7.303l.179-.007c.782 0 1.842.353 2.467 1.341.828 1.309.622 3.294-.614 5.9-2.767 4.91-3.271 7.285-4.771 15.598-.088.653-.339 2.583-.358 3.157-.119 2.713-1.532 3.474-2.697 3.635l-.33.024zm6.303-27.655c-.198.015-1.794.3-4.234 6.087-2.479 5.873-2.986 16.551-2.991 16.658-.054.918.217 2.276.69 2.779.123.13.194.13.232.13l.053-.004c.471-.065.913-.321.976-1.732.026-.769.345-3.126.381-3.392 1.521-8.441 2.087-11.091 4.972-16.206 1.223-2.583.896-3.598.698-3.911-.257-.404-.757-.409-.777-.409zm-4.294 159.711l1.959-5.482c.136-.382 13.604-38.438 8.829-56.657-2.378-10.713-5.625-25.345-17.642-48.458-13.055-25.11-13.767-28.8-12.738-42.966.032-.441.421-.769.855-.74.441.032.772.415.74.856-1.015 13.971-.381 17.217 12.563 42.112 12.113 23.299 15.386 38.05 17.776 48.82 3.854 14.704-3.521 40.983-7.103 52.252 20.798-30.669 24.275-49.788 26.392-61.429.147-.811.287-1.579.425-2.308 2.261-12.507-.058-25.229-2.301-37.532-.788-4.322-1.603-8.792-2.2-13.165-1.938-14.198 1.915-19.527 6.376-25.697 2.671-3.693 5.432-7.512 7.361-13.769 2.63-8.529.084-16.267-.453-17.731-5.862-15.987-18.114-17.729-26.854-17.633-7.433.075-29.171 7.29-31.493 38.394l-.105 1.376c-.091 1.178-.184 2.374-.255 3.583-.026.442-.436.786-.846.751-.441-.026-.777-.405-.752-.846.072-1.219.165-2.424.258-3.612l.104-1.372c2.411-32.3 25.259-39.795 33.073-39.874 9.191-.103 22.161 1.743 28.372 18.682.568 1.549 3.262 9.733.48 18.753-2.007 6.509-4.976 10.613-7.594 14.235-4.261 5.892-7.939 10.979-6.087 24.542.592 4.338 1.403 8.79 2.188 13.095 2.269 12.444 4.614 25.311 2.3 38.11-.139.731-.277 1.497-.424 2.303-2.244 12.341-6 32.998-29.842 66.655l-3.362 4.752zm-12.654-173.444c-.077 0-.154-.018-.227-.054-.246-.125-.345-.426-.219-.672l9.867-19.387c.125-.247.429-.342.672-.219.246.125.345.426.219.672l-9.867 19.387c-.087.173-.263.273-.445.273zm5.805-2.455c-.076 0-.152-.017-.225-.053-.247-.124-.346-.424-.222-.671l10.648-21.19c.122-.248.424-.345.671-.222.247.124.346.424.222.671l-10.648 21.19c-.086.175-.263.275-.446.275zm5.221-1.793c-.075 0-.152-.017-.224-.053-.247-.124-.347-.424-.224-.671l10.66-21.297c.124-.247.427-.346.671-.224.247.124.347.424.224.671l-10.66 21.297c-.088.175-.265.277-.447.277zm.633 6.196c-.075 0-.152-.017-.224-.053-.247-.124-.347-.424-.224-.671l14.139-28.242c.124-.247.428-.345.671-.224.247.124.347.424.224.671l-14.139 28.242c-.088.176-.265.277-.447.277zm3.59 2.147c-.075 0-.151-.017-.223-.052-.247-.123-.348-.423-.226-.67l15.107-30.403c.124-.248.426-.347.671-.225.247.123.348.423.226.67l-15.107 30.403c-.088.176-.265.277-.448.277zm2.679 2.857c-.074 0-.148-.016-.219-.05-.248-.121-.352-.42-.23-.668l15.949-32.737c.121-.249.424-.348.668-.23.248.121.352.42.23.668l-15.949 32.737c-.086.176-.264.28-.449.28zm5.514-.203c-.074 0-.149-.016-.22-.051-.248-.121-.351-.421-.229-.669l15.199-31.01c.122-.247.424-.35.669-.229.248.121.351.421.229.669l-15.199 31.01c-.087.177-.265.28-.449.28zm7.799 2.58c-.076 0-.152-.017-.225-.053-.247-.124-.346-.424-.223-.671l14.59-29.045c.124-.249.425-.346.672-.222.247.124.346.424.223.671l-14.59 29.045c-.088.174-.265.275-.447.275zm-4.617 1.186l-.217-.049c-.249-.12-.354-.418-.233-.667l15.681-32.61c.12-.249.418-.353.667-.234.249.12.354.418.233.667l-15.682 32.609c-.085.18-.264.284-.449.284zm7.843.678c-.075 0-.152-.017-.224-.053-.247-.124-.347-.424-.224-.671l14.123-28.214c.125-.247.428-.345.671-.224.247.124.347.424.224.671l-14.122 28.215c-.088.175-.265.276-.448.276zm5.948-1.691c-.076 0-.154-.018-.227-.054-.246-.125-.345-.426-.22-.672l11.367-22.385c.126-.246.428-.343.673-.219.246.125.345.426.22.672l-11.367 22.385c-.089.172-.265.273-.446.273zm1.429 7.049c-.075 0-.152-.017-.224-.053-.247-.124-.347-.424-.224-.671l12.4-24.776c.125-.247.427-.346.671-.224.247.124.347.424.224.671l-12.4 24.776c-.087.176-.264.277-.447.277zm5.992-1.403c-.073 0-.147-.016-.218-.05-.248-.12-.353-.419-.232-.668l8.104-16.754c.12-.249.42-.351.668-.232.248.12.353.419.232.668l-8.104 16.754c-.085.178-.264.282-.45.282zm-53.063 22.725c-.258 0-.51-.124-.665-.354l-3.676-5.46c-.489-.763-4.694-7.416-4.521-10.566.156-2.974 3.245-5.034 4.361-5.479l-.01-.021c1.006-.446 3.236-.834 4.474.888l.072.121c.765 1.597.141 3.035-.627 3.781l-.083.07c-.841.621-1.839 1.436-2.202 1.834.189.523 1.168 1.84 2.229 2.98.301.323.282.83-.041 1.13-.322.302-.828.284-1.131-.041-3.312-3.559-2.729-4.464-2.511-4.804.443-.68 2.085-1.928 2.656-2.352.218-.227.718-.888.297-1.843-.773-.977-2.295-.383-2.474-.309-.212.11-3.289 1.755-3.414 4.129-.123 2.235 3.034 7.688 4.262 9.601l3.666 5.445c.246.367.149.864-.218 1.11-.135.096-.291.14-.444.14zm40.775 2.311c-.268 0-.528-.134-.681-.377-1.279-2.056-4.24-7.118-4.1-9.713.153-2.927 3.291-4.814 4.126-5.202l-.007-.016c.959-.426 3.088-.795 4.268.853l.07.118c.72 1.492.174 2.84-.578 3.604l-.096.083c-.761.56-1.652 1.286-2.019 1.666.176.372.765 1.262 2.166 2.823.296.329.269.834-.061 1.13-.327.294-.836.268-1.129-.061-2.919-3.25-2.83-4.026-2.463-4.592.411-.636 1.949-1.805 2.499-2.211.234-.256.634-.853.269-1.681-.701-.885-2.103-.341-2.269-.272-.866.435-3.08 1.946-3.18 3.844-.095 1.752 2.021 5.826 3.86 8.783.234.375.119.869-.256 1.102-.129.08-.274.119-.419.119zm27.703-46.188c-.232 0-.441-.164-.489-.401-.412-2.045 1.689-3.421 2.812-3.998-.646-.771-.979-1.624-.992-2.544-.018-1.303.619-2.435 1.122-3.123-1.938-.409-3.151-1.21-3.614-2.385-.331-.842-.214-1.728.045-2.484-1.057.564-2.081.774-3.055.626-1.914-.289-2.897-1.855-2.938-1.921-.145-.235-.071-.543.164-.688.231-.144.541-.073.687.162.012.019.8 1.248 2.249 1.46 1.208.181 2.564-.379 4.024-1.657.193-.17.488-.164.676.016.187.18.205.473.042.675-.016.019-1.555 1.949-.962 3.448.388.981 1.63 1.624 3.692 1.91.189.026.347.158.406.338.06.181.011.38-.125.514-.015.014-1.438 1.434-1.413 3.1.014.849.409 1.639 1.176 2.346.127.117.185.291.152.46-.032.169-.149.31-.31.373-.032.013-3.237 1.291-2.857 3.175.055.271-.121.534-.392.589l-.1.009zm-474.344 45.396c-.079 0-.159-.019-.233-.058l-19.262-10.188c-.244-.129-.337-.432-.208-.676.128-.244.431-.338.676-.208l19.262 10.188c.244.129.337.432.208.676-.09.169-.264.266-.443.266zm-2.167 4.387l-.181-.034-15.358-5.963c-.257-.1-.385-.39-.285-.647.1-.258.389-.384.647-.285l15.358 5.964c.257.1.385.39.285.647-.077.197-.266.318-.466.318zm45.779-24.295l-.143-.021c-.265-.079-.416-.357-.336-.622l5.058-16.994c.079-.265.355-.415.622-.336.265.079.416.357.336.622l-5.058 16.994c-.064.217-.263.357-.479.357zm3.844 1.416l-.163-.027c-.261-.089-.4-.374-.31-.635l4.451-12.948c.089-.261.373-.402.635-.31.261.089.4.374.31.635l-4.451 12.948c-.071.207-.265.337-.472.337zm-51.98-28.843c1.516.351 2.861 1.103 4.037 2.254 1.175 1.153 2.069 2.616 2.682 4.392.612 1.775.812 3.482.599 5.121-.212 1.641-.803 3.065-1.773 4.273-.97 1.206-2.254 2.086-3.851 2.637-1.598.552-3.154.651-4.669.302-1.516-.351-2.859-1.107-4.03-2.271-1.171-1.162-2.063-2.63-2.675-4.405s-.814-3.478-.605-5.107c.208-1.629.8-3.05 1.777-4.26.977-1.209 2.264-2.09 3.862-2.642 1.581-.546 3.131-.644 4.646-.294zm-6.758 4.463c-.719.933-1.155 2.025-1.309 3.276-.154 1.252-.003 2.535.45 3.851.454 1.315 1.127 2.42 2.02 3.31.893.891 1.914 1.484 3.064 1.781 1.15.296 2.311.243 3.481-.161 1.17-.403 2.116-1.077 2.839-2.02.722-.942 1.16-2.039 1.314-3.291.154-1.251.004-2.536-.449-3.851-.454-1.316-1.128-2.419-2.021-3.31-.893-.89-1.909-1.482-3.05-1.772-1.141-.292-2.303-.233-3.486.175-1.183.409-2.135 1.079-2.853 2.012zm25.08-1.981c.922.421 1.667 1.078 2.234 1.969.567.895.896 1.994.99 3.302l.425 5.957c.025.355-.071.657-.288.908s-.503.39-.858.415-.658-.071-.91-.288c-.25-.218-.388-.504-.414-.859l-.425-5.957c-.093-1.308-.515-2.271-1.265-2.892-.75-.618-1.707-.888-2.869-.805-.678.048-1.286.229-1.822.544-.538.314-.947.717-1.228 1.208-.282.491-.402 1.026-.36 1.607l.487 6.828c.025.355-.066.657-.276.908-.209.251-.499.389-.871.415-.355.025-.658-.07-.909-.288s-.389-.503-.414-.858l-1.177-16.466c-.026-.371.069-.678.288-.921.217-.242.504-.378.859-.403.372-.026.678.066.92.276s.376.5.402.871l.424 5.934c.479-.554 1.064-.996 1.755-1.33.69-.332 1.438-.529 2.246-.587 1.115-.08 2.133.091 3.056.512zm-10.674 18.117c.066-.331.244-.6.537-.803s.603-.274.929-.216c.327.059.597.24.809.546l9.377 13.498c.213.307.289.622.23.949-.059.326-.234.592-.527.795-.146.102-.317.175-.511.222s-.373.037-.535-.026l-16.727-5.525 7.563 10.887c.204.293.278.605.224.938s-.234.606-.54.818c-.293.203-.603.275-.929.217-.327-.06-.596-.241-.809-.548l-9.377-13.498c-.212-.306-.29-.621-.23-.947.059-.326.234-.593.527-.796.146-.102.318-.166.515-.194.196-.028.378-.021.546.021l16.727 5.524-7.577-10.907c-.213-.307-.287-.625-.222-.955zm21.327-1.151c.974.637 1.716 1.481 2.227 2.534.509 1.054.723 2.235.642 3.543-.081 1.293-.436 2.43-1.063 3.412-.629.982-1.466 1.729-2.512 2.239-1.045.512-2.213.726-3.505.645-1.293-.08-2.43-.438-3.412-1.075-.981-.637-1.724-1.482-2.226-2.535s-.713-2.226-.633-3.518c.082-1.309.438-2.454 1.066-3.437s1.47-1.729 2.524-2.238c1.053-.51 2.225-.725 3.518-.645 1.276.081 2.4.438 3.374 1.075zm-5.764 1.55c-.678.347-1.225.856-1.639 1.528-.416.671-.649 1.442-.704 2.314-.054.872.082 1.664.411 2.373.328.71.809 1.279 1.438 1.708.63.428 1.357.668 2.182.719.823.052 1.575-.097 2.253-.442.678-.348 1.221-.853 1.627-1.517s.637-1.432.691-2.304c.055-.872-.079-1.668-.399-2.385-.32-.717-.796-1.29-1.425-1.719-.63-.428-1.357-.669-2.181-.72-.825-.05-1.576.098-2.254.445zm5.067-16.294c.339.008.733.045 1.181.114.408.085.703.13.886.138.182.007.362-.022.538-.092.313-.121.534-.355.665-.702.085-.223.167-.394.247-.513.08-.116.187-.201.323-.254.149-.059.319-.063.51-.016.275.066.481.272.616.619.106.272.125.543.058.812-.241.909-.789 1.53-1.645 1.862-.408.158-.792.234-1.154.227-.362-.006-.761-.046-1.196-.121-.705-.125-1.22-.125-1.546.002-.204.079-.364.189-.481.331-.117.141-.203.361-.259.66-.113.513-.34.835-.68.967-.108.042-.259.058-.451.045-.132-.018-.258-.082-.379-.191s-.213-.247-.277-.413c-.088-.227-.109-.461-.063-.704.119-.62.354-1.149.707-1.59.352-.441.792-.765 1.323-.971.378-.148.738-.216 1.077-.21zm5.654 7.478c.14-.184.333-.291.579-.319.246-.028.458.032.637.179.178.149.282.346.31.592l1.32 11.416c.027.232-.037.441-.192.628-.154.187-.34.293-.557.317-.232.027-.44-.034-.626-.181-.186-.146-.292-.336-.318-.568l-1.319-11.416c-.029-.246.026-.462.166-.648zm3.181 14.392c.275.226.433.51.473.857s-.048.659-.266.934c-.218.273-.5.432-.847.472-.347.04-.658-.045-.931-.255-.274-.21-.432-.497-.473-.859-.042-.36.046-.679.264-.953s.5-.433.847-.473.658.052.933.277zm.6-17.074c.137-.202.333-.326.591-.37.258-.045.484.006.682.15.196.146.317.348.361.605l2.06 11.955c.042.242-.014.467-.165.672-.152.206-.342.328-.569.367-.242.042-.466-.01-.67-.154-.205-.144-.327-.337-.369-.579l-2.06-11.956c-.044-.257.002-.488.139-.69zm4.195 14.98c.303.222.487.513.55.877.063.363-.014.696-.227.998-.213.303-.501.485-.865.548-.363.063-.695-.009-.997-.216-.301-.204-.483-.497-.548-.876-.065-.379.008-.719.222-1.021.213-.301.501-.483.865-.546.364-.063.697.016 1 .236z"/></svg>